# xmcd
#
# Track frame offsets:
#	150
#	10602
#	36439
#	57089
#	82095
#	104803
#	130386
#	153459
#
# Disc length: 2512 seconds
#
# Revision: 1
# Processed by: cddbd v1.5.1PL0 Copyright (c) Steve Scherf et al.
# Submitted via: EasyCDDAExtractor 5.1.0
#
DISCID=6809ce08
DTITLE=Black Sabbath - Theater Of The Living Arts Philadelphia 11-07-95 Disc 1
DYEAR=1995
DGENRE=Hard Rock
TTITLE0=Ave Satani
TTITLE1=Children Of The Grave
TTITLE2=Neon Knight
TTITLE3=The Shining
TTITLE4=The Wizard
TTITLE5=Get A Grip
TTITLE6=Headless Cross
TTITLE7=Rusty Angels With Guitar Intro
EXTD=
EXTT0=
EXTT1=
EXTT2=
EXTT3=
EXTT4=
EXTT5=
EXTT6=
EXTT7=
PLAYORDER=
